{"asset":{"version":"2.0","generator":"XGE walking tutorial: own procedural explorer"},"scene":0,"scenes":[{"nodes":[0,17]}],"nodes":[{"name":"root","translation":[0,0,0],"children":[1]},{"name":"hips","translation":[0,0.97,0],"children":[2,11,14]},{"name":"spine","translation":[0,0.16,0],"children":[3]},{"name":"chest","translation":[0,0.23,0],"children":[4,5,8]},{"name":"head","translation":[0,0.3,0]},{"name":"arm.L","translation":[0.3,0.03,0],"children":[6]},{"name":"forearm.L","translation":[0,-0.3,0],"children":[7]},{"name":"hand.L","translation":[0,-0.26,0]},{"name":"arm.R","translation":[-0.3,0.03,0],"children":[9]},{"name":"forearm.R","translation":[0,-0.3,0],"children":[10]},{"name":"hand.R","translation":[0,-0.26,0]},{"name":"thigh.L","translation":[0.14,-0.06,0],"children":[12]},{"name":"shin.L","translation":[0,-0.42,0],"children":[13]},{"name":"foot.L","translation":[0,-0.42,0]},{"name":"thigh.R","translation":[-0.14,-0.06,0],"children":[15]},{"name":"shin.R","translation":[0,-0.42,0],"children":[16]},{"name":"foot.R","translation":[0,-0.42,0]},{"name":"Explorer","mesh":0,"skin":0}],"skins":[{"joints":[0,1,2,3,4,5,6,7,8,9,10,11,12,13,14,15,16],"skeleton":0,"inverseBindMatrices":20}],"meshes":[{"primitives":[{"attributes":{"POSITION":0,"NORMAL":1,"JOINTS_0":2,"WEIGHTS_0":3},"material":0},{"attributes":{"POSITION":4,"NORMAL":5,"JOINTS_0":6,"WEIGHTS_0":7},"material":1},{"attributes":{"POSITION":8,"NORMAL":9,"JOINTS_0":10,"WEIGHTS_0":11},"material":2},{"attributes":{"POSITION":12,"NORMAL":13,"JOINTS_0":14,"WEIGHTS_0":15},"material":3},{"attributes":{"POSITION":16,"NORMAL":17,"JOINTS_0":18,"WEIGHTS_0":19},"material":4}]}],"materials":[{"pbrMetallicRoughness":{"baseColorFactor":[0.95,0.42,0.055,1],"metallicFactor":0,"roughnessFactor":0.85},"emissiveFactor":[0.038,0.0168,0.0022]},{"pbrMetallicRoughness":{"baseColorFactor":[0.045,0.11,0.19,1],"metallicFactor":0,"roughnessFactor":0.85},"emissiveFactor":[0.0018,0.0044,0.0076]},{"pbrMetallicRoughness":{"baseColorFactor":[0.48,0.25,0.11,1],"metallicFactor":0,"roughnessFactor":0.85},"emissiveFactor":[0.0192,0.01,0.0044]},{"pbrMetallicRoughness":{"baseColorFactor":[0.91,0.67,0.4,1],"metallicFactor":0,"roughnessFactor":0.85},"emissiveFactor":[0.0364,0.0268,0.016]},{"pbrMetallicRoughness":{"baseColorFactor":[0.018,0.04,0.065,1],"metallicFactor":0,"roughnessFactor":0.85},"emissiveFactor":[0.0007199999999999999,0.0016,0.0026000000000000003]}],"buffers":[{"byteLength":48720,"uri":"data:application/octet-stream;base64,"}],"bufferViews":[{"buffer":0,"byteOffset":0,"byteLength":1296},{"buffer":0,"byteOffset":1296,"byteLength":1296},{"buffer":0,"byteOffset":2592,"byteLength":864},{"buffer":0,"byteOffset":3456,"byteLength":1728},{"buffer":0,"byteOffset":5184,"byteLength":3456},{"buffer":0,"byteOffset":8640,"byteLength":3456},{"buffer":0,"byteOffset":12096,"byteLength":2304},{"buffer":0,"byteOffset":14400,"byteLength":4608},{"buffer":0,"byteOffset":19008,"byteLength":1296},{"buffer":0,"byteOffset":20304,"byteLength":1296},{"buffer":0,"byteOffset":21600,"byteLength":864},{"buffer":0,"byteOffset":22464,"byteLength":1728},{"buffer":0,"byteOffset":24192,"byteLength":1728},{"buffer":0,"byteOffset":25920,"byteLength":1728},{"buffer":0,"byteOffset":27648,"byteLength":1152},{"buffer":0,"byteOffset":28800,"byteLength":2304},{"buffer":0,"byteOffset":31104,"byteLength":432},{"buffer":0,"byteOffset":31536,"byteLength":432},{"buffer":0,"byteOffset":31968,"byteLength":288},{"buffer":0,"byteOffset":32256,"byteLength":576},{"buffer":0,"byteOffset":32832,"byteLength":1088},{"buffer":0,"byteOffset":33920,"byteLength":100},{"buffer":0,"byteOffset":34020,"byteLength":400},{"buffer":0,"byteOffset":34420,"byteLength":400},{"buffer":0,"byteOffset":34820,"byteLength":400},{"buffer":0,"byteOffset":35220,"byteLength":400},{"buffer":0,"byteOffset":35620,"byteLength":400},{"buffer":0,"byteOffset":36020,"byteLength":400},{"buffer":0,"byteOffset":36420,"byteLength":400},{"buffer":0,"byteOffset":36820,"byteLength":400},{"buffer":0,"byteOffset":37220,"byteLength":400},{"buffer":0,"byteOffset":37620,"byteLength":100},{"buffer":0,"byteOffset":37720,"byteLength":400},{"buffer":0,"byteOffset":38120,"byteLength":400},{"buffer":0,"byteOffset":38520,"byteLength":400},{"buffer":0,"byteOffset":38920,"byteLength":400},{"buffer":0,"byteOffset":39320,"byteLength":400},{"buffer":0,"byteOffset":39720,"byteLength":400},{"buffer":0,"byteOffset":40120,"byteLength":400},{"buffer":0,"byteOffset":40520,"byteLength":400},{"buffer":0,"byteOffset":40920,"byteLength":400},{"buffer":0,"byteOffset":41320,"byteLength":100},{"buffer":0,"byteOffset":41420,"byteLength":400},{"buffer":0,"byteOffset":41820,"byteLength":400},{"buffer":0,"byteOffset":42220,"byteLength":400},{"buffer":0,"byteOffset":42620,"byteLength":400},{"buffer":0,"byteOffset":43020,"byteLength":400},{"buffer":0,"byteOffset":43420,"byteLength":400},{"buffer":0,"byteOffset":43820,"byteLength":400},{"buffer":0,"byteOffset":44220,"byteLength":400},{"buffer":0,"byteOffset":44620,"byteLength":400},{"buffer":0,"byteOffset":45020,"byteLength":100},{"buffer":0,"byteOffset":45120,"byteLength":400},{"buffer":0,"byteOffset":45520,"byteLength":400},{"buffer":0,"byteOffset":45920,"byteLength":400},{"buffer":0,"byteOffset":46320,"byteLength":400},{"buffer":0,"byteOffset":46720,"byteLength":400},{"buffer":0,"byteOffset":47120,"byteLength":400},{"buffer":0,"byteOffset":47520,"byteLength":400},{"buffer":0,"byteOffset":47920,"byteLength":400},{"buffer":0,"byteOffset":48320,"byteLength":400}],"accessors":[{"bufferView":0,"componentType":5126,"count":108,"type":"VEC3","min":[-0.385,1.0099999999999998,-0.15],"max":[0.385,1.5099999999999998,0.15]},{"bufferView":1,"componentType":5126,"count":108,"type":"VEC3","min":[-1,-1,-1],"max":[1,1,1]},{"bufferView":2,"componentType":5123,"count":108,"type":"VEC4"},{"bufferView":3,"componentType":5126,"count":108,"type":"VEC4"},{"bufferView":4,"componentType":5126,"count":288,"type":"VEC3","min":[-0.373,0.09999999999999992,-0.15],"max":[0.373,1.9549999999999998,0.15]},{"bufferView":5,"componentType":5126,"count":288,"type":"VEC3","min":[-1,-1,-1],"max":[1,1,1]},{"bufferView":6,"componentType":5123,"count":288,"type":"VEC4"},{"bufferView":7,"componentType":5126,"count":288,"type":"VEC4"},{"bufferView":8,"componentType":5126,"count":108,"type":"VEC3","min":[-0.24000000000000002,0.004999999999999949,-0.265],"max":[0.24000000000000002,1.4699999999999998,0.23]},{"bufferView":9,"componentType":5126,"count":108,"type":"VEC3","min":[-1,-1,-1],"max":[1,1,1]},{"bufferView":10,"componentType":5123,"count":108,"type":"VEC4"},{"bufferView":11,"componentType":5126,"count":108,"type":"VEC4"},{"bufferView":12,"componentType":5126,"count":144,"type":"VEC3","min":[-0.37,0.7299999999999998,-0.135],"max":[0.37,1.93,0.135]},{"bufferView":13,"componentType":5126,"count":144,"type":"VEC3","min":[-1,-1,-1],"max":[1,1,1]},{"bufferView":14,"componentType":5123,"count":144,"type":"VEC4"},{"bufferView":15,"componentType":5126,"count":144,"type":"VEC4"},{"bufferView":16,"componentType":5126,"count":36,"type":"VEC3","min":[-0.1,1.7349999999999999,0.127],"max":[0.1,1.8249999999999997,0.15100000000000002]},{"bufferView":17,"componentType":5126,"count":36,"type":"VEC3","min":[-1,-1,-1],"max":[1,1,1]},{"bufferView":18,"componentType":5123,"count":36,"type":"VEC4"},{"bufferView":19,"componentType":5126,"count":36,"type":"VEC4"},{"bufferView":20,"componentType":5126,"count":17,"type":"MAT4"},{"bufferView":21,"componentType":5126,"count":25,"type":"SCALAR","min":[0.0],"max":[2.4]},{"bufferView":22,"componentType":5126,"count":25,"type":"VEC4"},{"bufferView":23,"componentType":5126,"count":25,"type":"VEC4"},{"bufferView":24,"componentType":5126,"count":25,"type":"VEC4"},{"bufferView":25,"componentType":5126,"count":25,"type":"VEC4"},{"bufferView":26,"componentType":5126,"count":25,"type":"VEC4"},{"bufferView":27,"componentType":5126,"count":25,"type":"VEC4"},{"bufferView":28,"componentType":5126,"count":25,"type":"VEC4"},{"bufferView":29,"componentType":5126,"count":25,"type":"VEC4"},{"bufferView":30,"componentType":5126,"count":25,"type":"VEC4"},{"bufferView":31,"componentType":5126,"count":25,"type":"SCALAR","min":[0.0],"max":[0.9]},{"bufferView":32,"componentType":5126,"count":25,"type":"VEC4"},{"bufferView":33,"componentType":5126,"count":25,"type":"VEC4"},{"bufferView":34,"componentType":5126,"count":25,"type":"VEC4"},{"bufferView":35,"componentType":5126,"count":25,"type":"VEC4"},{"bufferView":36,"componentType":5126,"count":25,"type":"VEC4"},{"bufferView":37,"componentType":5126,"count":25,"type":"VEC4"},{"bufferView":38,"componentType":5126,"count":25,"type":"VEC4"},{"bufferView":39,"componentType":5126,"count":25,"type":"VEC4"},{"bufferView":40,"componentType":5126,"count":25,"type":"VEC4"},{"bufferView":41,"componentType":5126,"count":25,"type":"SCALAR","min":[0.0],"max":[0.62]},{"bufferView":42,"componentType":5126,"count":25,"type":"VEC4"},{"bufferView":43,"componentType":5126,"count":25,"type":"VEC4"},{"bufferView":44,"componentType":5126,"count":25,"type":"VEC4"},{"bufferView":45,"componentType":5126,"count":25,"type":"VEC4"},{"bufferView":46,"componentType":5126,"count":25,"type":"VEC4"},{"bufferView":47,"componentType":5126,"count":25,"type":"VEC4"},{"bufferView":48,"componentType":5126,"count":25,"type":"VEC4"},{"bufferView":49,"componentType":5126,"count":25,"type":"VEC4"},{"bufferView":50,"componentType":5126,"count":25,"type":"VEC4"},{"bufferView":51,"componentType":5126,"count":25,"type":"SCALAR","min":[0.0],"max":[0.85]},{"bufferView":52,"componentType":5126,"count":25,"type":"VEC4"},{"bufferView":53,"componentType":5126,"count":25,"type":"VEC4"},{"bufferView":54,"componentType":5126,"count":25,"type":"VEC4"},{"bufferView":55,"componentType":5126,"count":25,"type":"VEC4"},{"bufferView":56,"componentType":5126,"count":25,"type":"VEC4"},{"bufferView":57,"componentType":5126,"count":25,"type":"VEC4"},{"bufferView":58,"componentType":5126,"count":25,"type":"VEC4"},{"bufferView":59,"componentType":5126,"count":25,"type":"VEC4"},{"bufferView":60,"componentType":5126,"count":25,"type":"VEC4"}],"animations":[{"name":"idle","samplers":[{"input":21,"output":22,"interpolation":"LINEAR"},{"input":21,"output":23,"interpolation":"LINEAR"},{"input":21,"output":24,"interpolation":"LINEAR"},{"input":21,"output":25,"interpolation":"LINEAR"},{"input":21,"output":26,"interpolation":"LINEAR"},{"input":21,"output":27,"interpolation":"LINEAR"},{"input":21,"output":28,"interpolation":"LINEAR"},{"input":21,"output":29,"interpolation":"LINEAR"},{"input":21,"output":30,"interpolation":"LINEAR"}],"channels":[{"sampler":0,"target":{"node":3,"path":"rotation"}},{"sampler":1,"target":{"node":5,"path":"rotation"}},{"sampler":2,"target":{"node":6,"path":"rotation"}},{"sampler":3,"target":{"node":8,"path":"rotation"}},{"sampler":4,"target":{"node":9,"path":"rotation"}},{"sampler":5,"target":{"node":11,"path":"rotation"}},{"sampler":6,"target":{"node":12,"path":"rotation"}},{"sampler":7,"target":{"node":14,"path":"rotation"}},{"sampler":8,"target":{"node":15,"path":"rotation"}}]},{"name":"walk","samplers":[{"input":31,"output":32,"interpolation":"LINEAR"},{"input":31,"output":33,"interpolation":"LINEAR"},{"input":31,"output":34,"interpolation":"LINEAR"},{"input":31,"output":35,"interpolation":"LINEAR"},{"input":31,"output":36,"interpolation":"LINEAR"},{"input":31,"output":37,"interpolation":"LINEAR"},{"input":31,"output":38,"interpolation":"LINEAR"},{"input":31,"output":39,"interpolation":"LINEAR"},{"input":31,"output":40,"interpolation":"LINEAR"}],"channels":[{"sampler":0,"target":{"node":3,"path":"rotation"}},{"sampler":1,"target":{"node":5,"path":"rotation"}},{"sampler":2,"target":{"node":6,"path":"rotation"}},{"sampler":3,"target":{"node":8,"path":"rotation"}},{"sampler":4,"target":{"node":9,"path":"rotation"}},{"sampler":5,"target":{"node":11,"path":"rotation"}},{"sampler":6,"target":{"node":12,"path":"rotation"}},{"sampler":7,"target":{"node":14,"path":"rotation"}},{"sampler":8,"target":{"node":15,"path":"rotation"}}]},{"name":"run","samplers":[{"input":41,"output":42,"interpolation":"LINEAR"},{"input":41,"output":43,"interpolation":"LINEAR"},{"input":41,"output":44,"interpolation":"LINEAR"},{"input":41,"output":45,"interpolation":"LINEAR"},{"input":41,"output":46,"interpolation":"LINEAR"},{"input":41,"output":47,"interpolation":"LINEAR"},{"input":41,"output":48,"interpolation":"LINEAR"},{"input":41,"output":49,"interpolation":"LINEAR"},{"input":41,"output":50,"interpolation":"LINEAR"}],"channels":[{"sampler":0,"target":{"node":3,"path":"rotation"}},{"sampler":1,"target":{"node":5,"path":"rotation"}},{"sampler":2,"target":{"node":6,"path":"rotation"}},{"sampler":3,"target":{"node":8,"path":"rotation"}},{"sampler":4,"target":{"node":9,"path":"rotation"}},{"sampler":5,"target":{"node":11,"path":"rotation"}},{"sampler":6,"target":{"node":12,"path":"rotation"}},{"sampler":7,"target":{"node":14,"path":"rotation"}},{"sampler":8,"target":{"node":15,"path":"rotation"}}]},{"name":"jump","samplers":[{"input":51,"output":52,"interpolation":"LINEAR"},{"input":51,"output":53,"interpolation":"LINEAR"},{"input":51,"output":54,"interpolation":"LINEAR"},{"input":51,"output":55,"interpolation":"LINEAR"},{"input":51,"output":56,"interpolation":"LINEAR"},{"input":51,"output":57,"interpolation":"LINEAR"},{"input":51,"output":58,"interpolation":"LINEAR"},{"input":51,"output":59,"interpolation":"LINEAR"},{"input":51,"output":60,"interpolation":"LINEAR"}],"channels":[{"sampler":0,"target":{"node":3,"path":"rotation"}},{"sampler":1,"target":{"node":5,"path":"rotation"}},{"sampler":2,"target":{"node":6,"path":"rotation"}},{"sampler":3,"target":{"node":8,"path":"rotation"}},{"sampler":4,"target":{"node":9,"path":"rotation"}},{"sampler":5,"target":{"node":11,"path":"rotation"}},{"sampler":6,"target":{"node":12,"path":"rotation"}},{"sampler":7,"target":{"node":14,"path":"rotation"}},{"sampler":8,"target":{"node":15,"path":"rotation"}}]}]}
