<svg viewBox="0 0 32 32" preserveAspectRatio="xMinYMax meet" xmlns:xlink="http://www.w3.org/1999/xlink" fill="none" stroke="#112233" stroke-width="2"><style>.cssFill{fill:#13579b;stroke:none}#idFill{fill:#2468ac;stroke:none}polygon{fill:#579b13}</style><defs><linearGradient id="accentGrad" x1="0%" y1="0%" x2="100%" y2="0%" spreadMethod="reflect" gradientTransform="translate(0.1 0) scale(0.8 1)"><stop offset="0%" stop-color="#00aaff"/><stop offset="100%" style="stop-color:#ff5522;stop-opacity:0.75"/></linearGradient></defs><defs><radialGradient id="radialGlow" cx="50%" cy="50%" r="50%" spreadMethod="repeat" gradientTransform="scale(0.9 0.9) translate(0.05 0.05)"><stop offset="0%" stop-color="#ffffff"/><stop offset="100%" stop-color="#2d7dd2" stop-opacity="0.8"/></radialGradient></defs><defs><linearGradient id="sharedStops"><stop offset="0%" stop-color="#111111"/><stop offset="100%" stop-color="#eeeeee"/></linearGradient><linearGradient id="hrefGrad" href="#sharedStops" x1="0%" y1="0%" x2="100%" y2="100%"/><radialGradient id="hrefRadial" xlink:href="#sharedStops" cx="50%" cy="50%" r="50%"/></defs><defs><clipPath id="cropClip" transform="translate(1 0)"><g transform="translate(-1 0)"><rect x="24" y="14" width="5" height="5"/></g></clipPath></defs><defs><clipPath id="objectCrop" clipPathUnits="objectBoundingBox"><g transform="translate(0.05 0)"><rect x="0" y="0" width="0.55" height="1"/><rect x="0.35" y="0" width="0.55" height="1"/></g></clipPath></defs><defs><mask id="softCrop" maskContentUnits="objectBoundingBox"><g transform="translate(0.05 0)"><rect x="0" y="0" width="0.55" height="1" fill="#808080"/><rect x="0.35" y="0" width="0.55" height="1" fill="#b0b0b0"/></g></mask></defs><defs><path id="reuseMark" d="M0 0 L3 0 L1.5 3 Z" fill="#123456" stroke="none"/></defs><defs><g id="badgePair"><rect x="0" y="0" width="2" height="2" fill="#abcdef" stroke="none"/><circle cx="4" cy="1" r="1" fill="#fedcba" stroke="none"/></g></defs><g transform="translate(4 3)" stroke-linecap="round"><path d="M1 1 L5 1 L5 5 Z" fill="#336699" style="stroke-width:1.5;stroke-dasharray:2 1"/><path d="M10 10 Q12 14 14 10 T18 10 A3 3 0 0 1 21 13" stroke="url(#accentGrad)"/><rect x="2" y="20" width="6" height="4" rx="1" fill="#00ff00"/><circle cx="16" cy="22" r="3" fill="#0000ff"/><ellipse cx="24" cy="22" rx="4" ry="2" fill="#ff00ff"/><line x1="2" y1="29" x2="8" y2="29" stroke="#000000"/><polyline points="10,29 14,25 18,29" stroke="#000000"/><polygon points="20,29 24,25 28,29" fill="#ffaa00"/><path d="M4 8 L12 8 L12 16 L4 16 Z M6 10 L10 10 L10 14 L6 14 Z" fill="#8844ff" fill-rule="evenodd" stroke="none"/><rect x="22" y="6" width="6" height="6" fill="url(#accentGrad)" stroke="none" style="clip-path:url(#objectCrop);mask:url(#softCrop)"/><circle cx="26" cy="16" r="3" fill="url(#radialGlow)" stroke="none" clip-path="url(#cropClip)"/><path d="M20 4 L25 1 L29 4" stroke="url(#radialGlow)" stroke-width="2" stroke-linecap="round" stroke-linejoin="round"/><use href="#reuseMark" x="24" y="0"/><use href="#badgePair" x="28" y="8"/><use href="#latePair" x="16" y="0"/><use href="#lateSymbol" x="0" y="24" width="4" height="2"/><path class="cssFill" d="M30 24 L32 24 L32 26 Z"/><rect x="28" y="20" width="2" height="2" fill="url(#hrefGrad)" stroke="none"/><path d="M30 28 L32 28" fill="none" stroke="url(#hrefRadial)" stroke-width="1"/><path id="idFill" d="M28 14 L30 14 L30 16 Z"/><polygon points="22,14 24,14 24,16"/></g><defs><g id="latePair"><rect x="0" y="0" width="2" height="2" fill="#0badf0" stroke="none"/><circle cx="4" cy="1" r="1" fill="#0fdbad" stroke="none"/></g></defs><defs><symbol id="lateSymbol" viewBox="-1 -1 2 2" preserveAspectRatio="none"><rect x="-1" y="-1" width="2" height="2" fill="#cafe44" stroke="none"/></symbol></defs></svg>