<svg width="816" height="40" viewBox="0 0 816 40" xmlns="http://www.w3.org/2000/svg">
  <defs>
    <filter id="regionIn" filterUnits="userSpaceOnUse" x="0" y="0" width="44" height="32">
      <feFlood x="8" y="8" width="18" height="14" flood-color="#22c55e" result="green"/>
      <feFlood x="18" y="14" width="18" height="14" flood-color="#f97316" result="orange"/>
      <feComposite in="orange" in2="green" operator="in"/>
    </filter>
    <filter id="regionAtop" filterUnits="userSpaceOnUse" x="50" y="0" width="44" height="32">
      <feFlood x="58" y="8" width="18" height="14" flood-color="#22c55e" result="green"/>
      <feFlood x="68" y="14" width="18" height="14" flood-color="#f97316" result="orange"/>
      <feComposite in="orange" in2="green" operator="atop"/>
    </filter>
    <filter id="regionOut" filterUnits="userSpaceOnUse" x="100" y="0" width="44" height="32">
      <feFlood x="108" y="8" width="18" height="14" flood-color="#22c55e" result="green"/>
      <feFlood x="118" y="14" width="18" height="14" flood-color="#f97316" result="orange"/>
      <feComposite in="orange" in2="green" operator="out"/>
    </filter>
    <filter id="regionXor" filterUnits="userSpaceOnUse" x="148" y="0" width="44" height="32">
      <feFlood x="156" y="8" width="18" height="14" flood-color="#22c55e" result="green"/>
      <feFlood x="166" y="14" width="18" height="14" flood-color="#f97316" result="orange"/>
      <feComposite in="green" in2="orange" operator="xor"/>
    </filter>
    <filter id="regionOver" filterUnits="userSpaceOnUse" x="196" y="0" width="44" height="32">
      <feFlood x="204" y="8" width="18" height="14" flood-color="#22c55e" result="green"/>
      <feFlood x="214" y="14" width="18" height="14" flood-color="#f97316" result="orange"/>
      <feComposite in="green" in2="orange" operator="over"/>
    </filter>
    <filter id="regionLighter" filterUnits="userSpaceOnUse" x="244" y="0" width="44" height="32">
      <feFlood x="252" y="8" width="18" height="14" flood-color="#22c55e" result="green"/>
      <feFlood x="262" y="14" width="18" height="14" flood-color="#f97316" result="orange"/>
      <feComposite in="green" in2="orange" operator="lighter"/>
    </filter>
    <filter id="regionArithmetic" filterUnits="userSpaceOnUse" x="292" y="0" width="44" height="32">
      <feFlood x="312" y="16" width="14" height="10" flood-color="#f97316" result="orange"/>
      <feComposite in="SourceGraphic" in2="orange" operator="arithmetic" k2="0.5" k3="0.5" k4="0.25" x="300" y="8" width="28" height="18"/>
    </filter>
    <filter id="regionArithmeticReverse" filterUnits="userSpaceOnUse" x="340" y="0" width="44" height="32">
      <feFlood x="360" y="16" width="14" height="10" flood-color="#f97316" result="orange"/>
      <feComposite in="orange" in2="SourceGraphic" operator="arithmetic" k2="0.5" k3="0.5" k4="0.25" x="348" y="8" width="28" height="18"/>
    </filter>
    <filter id="regionArithmeticCircle" filterUnits="userSpaceOnUse" primitiveUnits="userSpaceOnUse" x="388" y="0" width="44" height="32">
      <feFlood x="408" y="12" width="16" height="16" flood-color="#f97316" result="orange"/>
      <feComposite in="SourceGraphic" in2="orange" operator="arithmetic" k2="0.5" k3="0.5" x="396" y="8" width="30" height="20"/>
    </filter>
    <filter id="regionArithmeticCircleReverse" filterUnits="userSpaceOnUse" primitiveUnits="userSpaceOnUse" x="436" y="0" width="44" height="32">
      <feFlood x="456" y="12" width="16" height="16" flood-color="#f97316" result="orange"/>
      <feComposite in="orange" in2="SourceGraphic" operator="arithmetic" k2="0.5" k3="0.5" x="444" y="8" width="30" height="20"/>
    </filter>
    <filter id="regionInCircle" filterUnits="userSpaceOnUse" primitiveUnits="userSpaceOnUse" x="484" y="0" width="44" height="32">
      <feFlood x="504" y="12" width="16" height="16" flood-color="#f97316" result="orange"/>
      <feComposite in="orange" in2="SourceGraphic" operator="in" x="492" y="8" width="30" height="20"/>
    </filter>
    <filter id="regionInCircleReverse" filterUnits="userSpaceOnUse" primitiveUnits="userSpaceOnUse" x="532" y="0" width="44" height="32">
      <feFlood x="552" y="12" width="16" height="16" flood-color="#f97316" result="orange"/>
      <feComposite in="SourceGraphic" in2="orange" operator="in" x="540" y="8" width="30" height="20"/>
    </filter>
    <filter id="regionOutCircle" filterUnits="userSpaceOnUse" primitiveUnits="userSpaceOnUse" x="580" y="0" width="44" height="32">
      <feFlood x="600" y="12" width="16" height="16" flood-color="#f97316" result="orange"/>
      <feComposite in="SourceGraphic" in2="orange" operator="out" x="588" y="8" width="30" height="20"/>
    </filter>
    <filter id="regionAtopCircle" filterUnits="userSpaceOnUse" primitiveUnits="userSpaceOnUse" x="628" y="0" width="44" height="32">
      <feFlood x="648" y="12" width="16" height="16" flood-color="#f97316" result="orange"/>
      <feComposite in="orange" in2="SourceGraphic" operator="atop" x="636" y="8" width="30" height="20"/>
    </filter>
    <filter id="regionOverCircle" filterUnits="userSpaceOnUse" primitiveUnits="userSpaceOnUse" x="676" y="0" width="44" height="32">
      <feFlood x="696" y="12" width="16" height="16" flood-color="#f97316" result="orange"/>
      <feComposite in="SourceGraphic" in2="orange" operator="over" x="684" y="8" width="30" height="20"/>
    </filter>
    <filter id="regionXorCircle" filterUnits="userSpaceOnUse" primitiveUnits="userSpaceOnUse" x="724" y="0" width="44" height="32">
      <feFlood x="744" y="12" width="16" height="16" flood-color="#f97316" result="orange"/>
      <feComposite in="SourceGraphic" in2="orange" operator="xor" x="732" y="8" width="30" height="20"/>
    </filter>
    <filter id="regionLighterCircle" filterUnits="userSpaceOnUse" primitiveUnits="userSpaceOnUse" x="772" y="0" width="44" height="32">
      <feFlood x="792" y="12" width="16" height="16" flood-color="#f97316" result="orange"/>
      <feComposite in="SourceGraphic" in2="orange" operator="lighter" x="780" y="8" width="30" height="20"/>
    </filter>
  </defs>
  <rect width="816" height="40" fill="#111827"/>
  <rect x="10" y="10" width="10" height="8" fill="#64748b" filter="url(#regionIn)"/>
  <rect x="60" y="10" width="10" height="8" fill="#64748b" filter="url(#regionAtop)"/>
  <rect x="110" y="10" width="10" height="8" fill="#64748b" filter="url(#regionOut)"/>
  <rect x="158" y="10" width="10" height="8" fill="#64748b" filter="url(#regionXor)"/>
  <rect x="206" y="10" width="10" height="8" fill="#64748b" filter="url(#regionOver)"/>
  <rect x="254" y="10" width="10" height="8" fill="#64748b" filter="url(#regionLighter)"/>
  <rect x="302" y="10" width="14" height="10" fill="#22c55e" filter="url(#regionArithmetic)"/>
  <rect x="350" y="10" width="14" height="10" fill="#22c55e" filter="url(#regionArithmeticReverse)"/>
  <circle cx="400" cy="18" r="10" fill="#22c55e" filter="url(#regionArithmeticCircle)"/>
  <circle cx="448" cy="18" r="10" fill="#22c55e" filter="url(#regionArithmeticCircleReverse)"/>
  <circle cx="496" cy="18" r="10" fill="#22c55e" filter="url(#regionInCircle)"/>
  <circle cx="544" cy="18" r="10" fill="#22c55e" filter="url(#regionInCircleReverse)"/>
  <circle cx="592" cy="18" r="10" fill="#22c55e" filter="url(#regionOutCircle)"/>
  <circle cx="640" cy="18" r="10" fill="#22c55e" filter="url(#regionAtopCircle)"/>
  <circle cx="688" cy="18" r="10" fill="#22c55e" filter="url(#regionOverCircle)"/>
  <circle cx="736" cy="18" r="10" fill="#22c55e" filter="url(#regionXorCircle)"/>
  <circle cx="784" cy="18" r="10" fill="#22c55e" filter="url(#regionLighterCircle)"/>
</svg>
