<svg xmlns="http://www.w3.org/2000/svg" width="300" height="100" viewBox="0 0 300 100">
  <defs>
    <clipPath id="longClip" clipPathUnits="userSpaceOnUse">
      <path d="M110 10 l0 0 l0 0 l0 0 l0 0 l0 0 l0 0 l0 0 l0 0 l0 0 l0 0 l0 0 l0 0 l0 0 l0 0 l0 0 l0 0 l0 0 l0 0 l0 0 l0 0 l0 0 l0 0 l0 0 l0 0 l0 0 l0 0 l0 0 l0 0 l0 0 l0 0 l0 0 l0 0 l0 0 l0 0 l0 0 l0 0 l0 0 l0 0 l0 0 l0 0 l0 0 l0 0 l0 0 l0 0 l0 0 l0 0 l0 0 l0 0 l0 0 l0 0 l0 0 l0 0 l0 0 l0 0 l0 0 l0 0 l0 0 l0 0 l0 0 l0 0 l0 0 l0 0 l0 0 l0 0 l0 0 l0 0 l0 0 l0 0 l0 0 l0 0 l0 0 l0 0 l0 0 l0 0 l0 0 l0 0 l0 0 l0 0 l0 0 l0 0 l0 0 l0 0 l0 0 l0 0 l0 0 l0 0 l0 0 l0 0 l0 0 l0 0 l0 0 l0 0 l0 0 l0 0 l0 0 l0 0 l0 0 l0 0 l0 0 l0 0 l0 0 l0 0 l0 0 l0 0 l0 0 l0 0 l0 0 l0 0 l0 0 l0 0 l0 0 l0 0 l0 0 l0 0 l0 0 l0 0 l0 0 l0 0 l0 0 l0 0 l0 0 l0 0 l0 0 l0 0 l0 0 l0 0 l0 0 l0 0 l0 0 l0 0 l0 0 l0 0 l0 0 l0 0 l0 0 l0 0 l0 0 l0 0 l0 0 l0 0 l0 0 l0 0 l0 0 l0 0 l0 0 l0 0 l0 0 l0 0 l0 0 l0 0 l0 0 l0 0 l0 0 l0 0 l0 0 l0 0 l0 0 l0 0 l0 0 l0 0 l0 0 l0 0 l0 0 l0 0 l0 0 l0 0 l0 0 l0 0 l0 0 l0 0 l0 0 l0 0 l0 0 l0 0 l0 0 l0 0 l0 0 l0 0 l0 0 l0 0 l0 0 l0 0 l0 0 l0 0 l0 0 l0 0 l0 0 l0 0 l0 0 l0 0 l0 0 l0 0 l0 0 l0 0 l0 0 l0 0 l0 0 l0 0 l0 0 l0 0 l0 0 l0 0 l0 0 l0 0 l0 0 l0 0 l0 0 l0 0 l0 0 l0 0 l0 0 l0 0 l0 0 l0 0 l0 0 l0 0 l0 0 l0 0 l0 0 l0 0 l0 0 l0 0 l0 0 l0 0 l0 0 l0 0 l0 0 l0 0 l0 0 l0 0 l0 0 l0 0 l0 0 l0 0 l0 0 l0 0 l0 0 l0 0 l0 0 l0 0 l0 0 l0 0 l0 0 l0 0 l0 0 l0 0 l0 0 l0 0 l0 0 l0 0 l0 0 l0 0 l0 0 l0 0 l0 0 l0 0 l0 0 l0 0 l0 0 l0 0 l0 0 l0 0 l0 0 l0 0 l0 0 l0 0 l0 0 l0 0 l0 0 l0 0 l0 0 l0 0 l0 0 l0 0 l0 0 l0 0 l0 0 l0 0 l0 0 l0 0 l0 0 l0 0 l0 0 l0 0 l0 0 l0 0 l0 0 l0 0 l0 0 l0 0 l0 0 l0 0 l0 0 l0 0 l0 0 l0 0 l0 0 l0 0 l0 0 l0 0 l0 0 l0 0 l0 0 l0 0 l0 0 l0 0 l0 0 l0 0 l0 0 l0 0 l0 0 l0 0 l0 0 l0 0 l0 0 l0 0 l0 0 l0 0 l0 0 l0 0 l0 0 l0 0 l0 0 l0 0 l0 0 l0 0 l0 0 l0 0 l0 0 l0 0 l0 0 l0 0 l0 0 l0 0 l0 0 l0 0 l0 0 l0 0 l0 0 l0 0 l0 0 l0 0 l0 0 l0 0 l0 0 l0 0 l0 0 l0 0 l0 0 l0 0 l0 0 l0 0 l0 0 l0 0 l0 0 l0 0 l0 0 l0 0 l0 0 l0 0 l0 0 l0 0 l0 0 l0 0 l0 0 l0 0 l0 0 l0 0 l0 0 l0 0 l0 0 l0 0 l0 0 l0 0 l0 0 l0 0 l0 0 l0 0 l0 0 l0 0 l0 0 l0 0 l0 0 l0 0 l0 0 l0 0 l0 0 l0 0 l0 0 l0 0 l0 0 l0 0 l0 0 l0 0 l0 0 l0 0 l0 0 l0 0 l0 0 l0 0 l0 0 l0 0 l0 0 l0 0 l0 0 l0 0 l0 0 l0 0 l0 0 l0 0 l0 0 l0 0 l0 0 l0 0 l0 0 l0 0 l0 0 l0 0 l0 0 l0 0 l0 0 l0 0 l0 0 l0 0 l0 0 l0 0 l0 0 l0 0 l0 0 l0 0 l0 0 l0 0 l0 0 l0 0 l0 0 l0 0 l0 0 l0 0 l0 0 l0 0 l0 0 l0 0 l0 0 l0 0 l0 0 l0 0 l0 0 l0 0 l0 0 l0 0 l0 0 l0 0 l0 0 l0 0 l0 0 l0 0 l0 0 l0 0 l0 0 l0 0 l0 0 l0 0 l0 0 l0 0 l0 0 l0 0 l0 0 l0 0 l0 0 l0 0 l0 0 l0 0 l0 0 l0 0 l0 0 l0 0 l0 0 l0 0 l0 0 l0 0 l0 0 l0 0 l0 0 l0 0 l0 0 l0 0 l0 0 l0 0 l0 0 l0 0 l0 0 l0 0 l0 0 l0 0 l0 0 l0 0 l0 0 l0 0 l0 0 l0 0 l0 0 l0 0 l0 0 l0 0 l0 0 l0 0 l0 0 l0 0 l0 0 l0 0 l0 0 l0 0 l0 0 l0 0 l0 0 l0 0 l0 0 l0 0 l0 0 l0 0 l0 0 l0 0 l0 0 l0 0 l0 0 l0 0 l0 0 l0 0 l0 0 l0 0 l0 0 l0 0 l0 0 l0 0 l0 0 l0 0 l0 0 l0 0 l0 0 l0 0 l0 0 l0 0 l0 0 l0 0 l0 0 l0 0 l0 0 l0 0 l0 0 l0 0 l0 0 l0 0 l0 0 l0 0 l0 0 l0 0 l0 0 l0 0 l0 0 l0 0 l0 0 l0 0 l0 0 l0 0 l0 0 l0 0 l0 0 l0 0 l0 0 l0 0 l0 0 l0 0 l0 0 l0 0 l0 0 l0 0 l0 0 l0 0 l0 0 l0 0 l0 0 l0 0 l0 0 l0 0 l0 0 l0 0 l0 0 l0 0 l0 0 l0 0 l0 0 l0 0 l0 0 l0 0 l0 0 l0 0 l0 0 l0 0 l0 0 l0 0 l0 0 l0 0 l0 0 l0 0 l0 0 l0 0 l0 0 l0 0 l0 0 l0 0 l0 0 l0 0 l0 0 l0 0 l0 0 l0 0 l0 0 l0 0 l0 0 l0 0 l0 0 l0 0 l0 0 l0 0 l0 0 l0 0 l0 0 l0 0 l0 0 l0 0 l0 0 l0 0 l0 0 l0 0 l0 0 l0 0 l0 0 l0 0 l0 0 l0 0 l0 0 l0 0 l0 0 l0 0 l0 0 l0 0 l0 0 l0 0 l0 0 l0 0 l0 0 l0 0 l0 0 l0 0 l0 0 l0 0 l0 0 l0 0 l0 0 l0 0 l0 0 l0 0 l0 0 l0 0 l0 0 l0 0 l0 0 l0 0 l0 0 l0 0 l0 0 l0 0 l0 0 l0 0 l0 0 l0 0 l0 0 l0 0 l0 0 l0 0 l0 0 l0 0 l0 0 l0 0 l0 0 l0 0 l0 0 l0 0 l0 0 l0 0 l0 0 l0 0 l0 0 l0 0 l0 0 l0 0 l0 0 l0 0 l0 0 l0 0 l0 0 l0 0 l0 0 l0 0 l0 0 l0 0 l0 0 l0 0 l0 0 l0 0 l0 0 l0 0 l0 0 l0 0 l0 0 l0 0 l0 0 l0 0 l0 0 l0 0 l0 0 l0 0 l0 0 l0 0 l0 0 l0 0 l0 0 l0 0 l0 0 l0 0 l0 0 l0 0 l0 0 l0 0 l0 0 l0 0 l0 0 l0 0 l0 0 l0 0 l0 0 l0 0 l0 0 l0 0 l0 0 l0 0 l0 0 l0 0 l0 0 l0 0 l0 0 l0 0 l0 0 l0 0 l0 0 l0 0 l0 0 l0 0 l0 0 l0 0 l0 0 l0 0 l0 0 l0 0 l0 0 l0 0 l0 0 l0 0 l0 0 l0 0 l0 0 l0 0 l0 0 l0 0 l0 0 l0 0 l0 0 l0 0 l0 0 l0 0 l0 0 l0 0 l0 0 l0 0 l0 0 l0 0 l0 0 l0 0 l0 0 l0 0 l0 0 l0 0 l0 0 l0 0 l0 0 l0 0 l0 0 l0 0 l0 0 l0 0 l0 0 l0 0 l0 0 l0 0 l0 0 l0 0 l0 0 l0 0 l0 0 l0 0 l0 0 l0 0 l0 0 l0 0 l0 0 l0 0 l0 0 l0 0 l0 0 l0 0 l0 0 l0 0 l0 0 l0 0 l0 0 l0 0 l0 0 l0 0 l0 0 l0 0 l0 0 l0 0 l0 0 l0 0 l0 0 l0 0 l0 0 l0 0 l0 0 l0 0 l0 0 l0 0 l0 0 l0 0 l0 0 l0 0 l0 0 l0 0 l0 0 l0 0 l0 0 l0 0 l0 0 l0 0 l0 0 l0 0 l0 0 l0 0 l0 0 l0 0 l0 0 l0 0 l0 0 l0 0 l0 0 l0 0 l0 0 l0 0 l0 0 l0 0 l0 0 l0 0 l0 0 l0 0 l0 0 l0 0 l0 0 l0 0 l0 0 l0 0 l0 0 l0 0 l0 0 l0 0 l0 0 l0 0 l0 0 l0 0 l0 0 l0 0 l0 0 l0 0 l0 0 l0 0 l0 0 l0 0 l0 0 l0 0 l0 0 l0 0 H190 V90 H110 Z"/>
    </clipPath>
    <mask id="longMask" maskUnits="userSpaceOnUse" x="200" y="0" width="100" height="100">
      <path fill="#ffffff" d="M210 10 l0 0 l0 0 l0 0 l0 0 l0 0 l0 0 l0 0 l0 0 l0 0 l0 0 l0 0 l0 0 l0 0 l0 0 l0 0 l0 0 l0 0 l0 0 l0 0 l0 0 l0 0 l0 0 l0 0 l0 0 l0 0 l0 0 l0 0 l0 0 l0 0 l0 0 l0 0 l0 0 l0 0 l0 0 l0 0 l0 0 l0 0 l0 0 l0 0 l0 0 l0 0 l0 0 l0 0 l0 0 l0 0 l0 0 l0 0 l0 0 l0 0 l0 0 l0 0 l0 0 l0 0 l0 0 l0 0 l0 0 l0 0 l0 0 l0 0 l0 0 l0 0 l0 0 l0 0 l0 0 l0 0 l0 0 l0 0 l0 0 l0 0 l0 0 l0 0 l0 0 l0 0 l0 0 l0 0 l0 0 l0 0 l0 0 l0 0 l0 0 l0 0 l0 0 l0 0 l0 0 l0 0 l0 0 l0 0 l0 0 l0 0 l0 0 l0 0 l0 0 l0 0 l0 0 l0 0 l0 0 l0 0 l0 0 l0 0 l0 0 l0 0 l0 0 l0 0 l0 0 l0 0 l0 0 l0 0 l0 0 l0 0 l0 0 l0 0 l0 0 l0 0 l0 0 l0 0 l0 0 l0 0 l0 0 l0 0 l0 0 l0 0 l0 0 l0 0 l0 0 l0 0 l0 0 l0 0 l0 0 l0 0 l0 0 l0 0 l0 0 l0 0 l0 0 l0 0 l0 0 l0 0 l0 0 l0 0 l0 0 l0 0 l0 0 l0 0 l0 0 l0 0 l0 0 l0 0 l0 0 l0 0 l0 0 l0 0 l0 0 l0 0 l0 0 l0 0 l0 0 l0 0 l0 0 l0 0 l0 0 l0 0 l0 0 l0 0 l0 0 l0 0 l0 0 l0 0 l0 0 l0 0 l0 0 l0 0 l0 0 l0 0 l0 0 l0 0 l0 0 l0 0 l0 0 l0 0 l0 0 l0 0 l0 0 l0 0 l0 0 l0 0 l0 0 l0 0 l0 0 l0 0 l0 0 l0 0 l0 0 l0 0 l0 0 l0 0 l0 0 l0 0 l0 0 l0 0 l0 0 l0 0 l0 0 l0 0 l0 0 l0 0 l0 0 l0 0 l0 0 l0 0 l0 0 l0 0 l0 0 l0 0 l0 0 l0 0 l0 0 l0 0 l0 0 l0 0 l0 0 l0 0 l0 0 l0 0 l0 0 l0 0 l0 0 l0 0 l0 0 l0 0 l0 0 l0 0 l0 0 l0 0 l0 0 l0 0 l0 0 l0 0 l0 0 l0 0 l0 0 l0 0 l0 0 l0 0 l0 0 l0 0 l0 0 l0 0 l0 0 l0 0 l0 0 l0 0 l0 0 l0 0 l0 0 l0 0 l0 0 l0 0 l0 0 l0 0 l0 0 l0 0 l0 0 l0 0 l0 0 l0 0 l0 0 l0 0 l0 0 l0 0 l0 0 l0 0 l0 0 l0 0 l0 0 l0 0 l0 0 l0 0 l0 0 l0 0 l0 0 l0 0 l0 0 l0 0 l0 0 l0 0 l0 0 l0 0 l0 0 l0 0 l0 0 l0 0 l0 0 l0 0 l0 0 l0 0 l0 0 l0 0 l0 0 l0 0 l0 0 l0 0 l0 0 l0 0 l0 0 l0 0 l0 0 l0 0 l0 0 l0 0 l0 0 l0 0 l0 0 l0 0 l0 0 l0 0 l0 0 l0 0 l0 0 l0 0 l0 0 l0 0 l0 0 l0 0 l0 0 l0 0 l0 0 l0 0 l0 0 l0 0 l0 0 l0 0 l0 0 l0 0 l0 0 l0 0 l0 0 l0 0 l0 0 l0 0 l0 0 l0 0 l0 0 l0 0 l0 0 l0 0 l0 0 l0 0 l0 0 l0 0 l0 0 l0 0 l0 0 l0 0 l0 0 l0 0 l0 0 l0 0 l0 0 l0 0 l0 0 l0 0 l0 0 l0 0 l0 0 l0 0 l0 0 l0 0 l0 0 l0 0 l0 0 l0 0 l0 0 l0 0 l0 0 l0 0 l0 0 l0 0 l0 0 l0 0 l0 0 l0 0 l0 0 l0 0 l0 0 l0 0 l0 0 l0 0 l0 0 l0 0 l0 0 l0 0 l0 0 l0 0 l0 0 l0 0 l0 0 l0 0 l0 0 l0 0 l0 0 l0 0 l0 0 l0 0 l0 0 l0 0 l0 0 l0 0 l0 0 l0 0 l0 0 l0 0 l0 0 l0 0 l0 0 l0 0 l0 0 l0 0 l0 0 l0 0 l0 0 l0 0 l0 0 l0 0 l0 0 l0 0 l0 0 l0 0 l0 0 l0 0 l0 0 l0 0 l0 0 l0 0 l0 0 l0 0 l0 0 l0 0 l0 0 l0 0 l0 0 l0 0 l0 0 l0 0 l0 0 l0 0 l0 0 l0 0 l0 0 l0 0 l0 0 l0 0 l0 0 l0 0 l0 0 l0 0 l0 0 l0 0 l0 0 l0 0 l0 0 l0 0 l0 0 l0 0 l0 0 l0 0 l0 0 l0 0 l0 0 l0 0 l0 0 l0 0 l0 0 l0 0 l0 0 l0 0 l0 0 l0 0 l0 0 l0 0 l0 0 l0 0 l0 0 l0 0 l0 0 l0 0 l0 0 l0 0 l0 0 l0 0 l0 0 l0 0 l0 0 l0 0 l0 0 l0 0 l0 0 l0 0 l0 0 l0 0 l0 0 l0 0 l0 0 l0 0 l0 0 l0 0 l0 0 l0 0 l0 0 l0 0 l0 0 l0 0 l0 0 l0 0 l0 0 l0 0 l0 0 l0 0 l0 0 l0 0 l0 0 l0 0 l0 0 l0 0 l0 0 l0 0 l0 0 l0 0 l0 0 l0 0 l0 0 l0 0 l0 0 l0 0 l0 0 l0 0 l0 0 l0 0 l0 0 l0 0 l0 0 l0 0 l0 0 l0 0 l0 0 l0 0 l0 0 l0 0 l0 0 l0 0 l0 0 l0 0 l0 0 l0 0 l0 0 l0 0 l0 0 l0 0 l0 0 l0 0 l0 0 l0 0 l0 0 l0 0 l0 0 l0 0 l0 0 l0 0 l0 0 l0 0 l0 0 l0 0 l0 0 l0 0 l0 0 l0 0 l0 0 l0 0 l0 0 l0 0 l0 0 l0 0 l0 0 l0 0 l0 0 l0 0 l0 0 l0 0 l0 0 l0 0 l0 0 l0 0 l0 0 l0 0 l0 0 l0 0 l0 0 l0 0 l0 0 l0 0 l0 0 l0 0 l0 0 l0 0 l0 0 l0 0 l0 0 l0 0 l0 0 l0 0 l0 0 l0 0 l0 0 l0 0 l0 0 l0 0 l0 0 l0 0 l0 0 l0 0 l0 0 l0 0 l0 0 l0 0 l0 0 l0 0 l0 0 l0 0 l0 0 l0 0 l0 0 l0 0 l0 0 l0 0 l0 0 l0 0 l0 0 l0 0 l0 0 l0 0 l0 0 l0 0 l0 0 l0 0 l0 0 l0 0 l0 0 l0 0 l0 0 l0 0 l0 0 l0 0 l0 0 l0 0 l0 0 l0 0 l0 0 l0 0 l0 0 l0 0 l0 0 l0 0 l0 0 l0 0 l0 0 l0 0 l0 0 l0 0 l0 0 l0 0 l0 0 l0 0 l0 0 l0 0 l0 0 l0 0 l0 0 l0 0 l0 0 l0 0 l0 0 l0 0 l0 0 l0 0 l0 0 l0 0 l0 0 l0 0 l0 0 l0 0 l0 0 l0 0 l0 0 l0 0 l0 0 l0 0 l0 0 l0 0 l0 0 l0 0 l0 0 l0 0 l0 0 l0 0 l0 0 l0 0 l0 0 l0 0 l0 0 l0 0 l0 0 l0 0 l0 0 l0 0 l0 0 l0 0 l0 0 l0 0 l0 0 l0 0 l0 0 l0 0 l0 0 l0 0 l0 0 l0 0 l0 0 l0 0 l0 0 l0 0 l0 0 l0 0 l0 0 l0 0 l0 0 l0 0 l0 0 l0 0 l0 0 l0 0 l0 0 l0 0 l0 0 l0 0 l0 0 l0 0 l0 0 l0 0 l0 0 l0 0 l0 0 l0 0 l0 0 l0 0 l0 0 l0 0 l0 0 l0 0 l0 0 l0 0 l0 0 l0 0 l0 0 l0 0 l0 0 l0 0 l0 0 l0 0 l0 0 l0 0 l0 0 l0 0 l0 0 l0 0 l0 0 l0 0 l0 0 l0 0 l0 0 l0 0 l0 0 l0 0 l0 0 l0 0 l0 0 l0 0 l0 0 l0 0 l0 0 l0 0 l0 0 l0 0 l0 0 l0 0 l0 0 l0 0 l0 0 l0 0 l0 0 l0 0 l0 0 l0 0 l0 0 l0 0 l0 0 l0 0 l0 0 l0 0 l0 0 l0 0 l0 0 l0 0 l0 0 l0 0 l0 0 l0 0 l0 0 l0 0 l0 0 l0 0 l0 0 l0 0 l0 0 l0 0 l0 0 l0 0 l0 0 l0 0 l0 0 l0 0 l0 0 l0 0 l0 0 l0 0 l0 0 l0 0 l0 0 l0 0 l0 0 l0 0 l0 0 l0 0 l0 0 l0 0 l0 0 l0 0 l0 0 l0 0 l0 0 l0 0 l0 0 l0 0 l0 0 l0 0 l0 0 l0 0 l0 0 l0 0 l0 0 l0 0 l0 0 l0 0 l0 0 l0 0 l0 0 l0 0 l0 0 l0 0 l0 0 l0 0 l0 0 l0 0 l0 0 l0 0 l0 0 l0 0 l0 0 l0 0 l0 0 l0 0 l0 0 l0 0 l0 0 l0 0 l0 0 l0 0 l0 0 l0 0 l0 0 l0 0 l0 0 l0 0 l0 0 l0 0 l0 0 l0 0 l0 0 l0 0 l0 0 l0 0 l0 0 H290 V90 H210 Z"/>
    </mask>
  </defs>
  <path fill="#2f80ed" d="M10 10 l0 0 l0 0 l0 0 l0 0 l0 0 l0 0 l0 0 l0 0 l0 0 l0 0 l0 0 l0 0 l0 0 l0 0 l0 0 l0 0 l0 0 l0 0 l0 0 l0 0 l0 0 l0 0 l0 0 l0 0 l0 0 l0 0 l0 0 l0 0 l0 0 l0 0 l0 0 l0 0 l0 0 l0 0 l0 0 l0 0 l0 0 l0 0 l0 0 l0 0 l0 0 l0 0 l0 0 l0 0 l0 0 l0 0 l0 0 l0 0 l0 0 l0 0 l0 0 l0 0 l0 0 l0 0 l0 0 l0 0 l0 0 l0 0 l0 0 l0 0 l0 0 l0 0 l0 0 l0 0 l0 0 l0 0 l0 0 l0 0 l0 0 l0 0 l0 0 l0 0 l0 0 l0 0 l0 0 l0 0 l0 0 l0 0 l0 0 l0 0 l0 0 l0 0 l0 0 l0 0 l0 0 l0 0 l0 0 l0 0 l0 0 l0 0 l0 0 l0 0 l0 0 l0 0 l0 0 l0 0 l0 0 l0 0 l0 0 l0 0 l0 0 l0 0 l0 0 l0 0 l0 0 l0 0 l0 0 l0 0 l0 0 l0 0 l0 0 l0 0 l0 0 l0 0 l0 0 l0 0 l0 0 l0 0 l0 0 l0 0 l0 0 l0 0 l0 0 l0 0 l0 0 l0 0 l0 0 l0 0 l0 0 l0 0 l0 0 l0 0 l0 0 l0 0 l0 0 l0 0 l0 0 l0 0 l0 0 l0 0 l0 0 l0 0 l0 0 l0 0 l0 0 l0 0 l0 0 l0 0 l0 0 l0 0 l0 0 l0 0 l0 0 l0 0 l0 0 l0 0 l0 0 l0 0 l0 0 l0 0 l0 0 l0 0 l0 0 l0 0 l0 0 l0 0 l0 0 l0 0 l0 0 l0 0 l0 0 l0 0 l0 0 l0 0 l0 0 l0 0 l0 0 l0 0 l0 0 l0 0 l0 0 l0 0 l0 0 l0 0 l0 0 l0 0 l0 0 l0 0 l0 0 l0 0 l0 0 l0 0 l0 0 l0 0 l0 0 l0 0 l0 0 l0 0 l0 0 l0 0 l0 0 l0 0 l0 0 l0 0 l0 0 l0 0 l0 0 l0 0 l0 0 l0 0 l0 0 l0 0 l0 0 l0 0 l0 0 l0 0 l0 0 l0 0 l0 0 l0 0 l0 0 l0 0 l0 0 l0 0 l0 0 l0 0 l0 0 l0 0 l0 0 l0 0 l0 0 l0 0 l0 0 l0 0 l0 0 l0 0 l0 0 l0 0 l0 0 l0 0 l0 0 l0 0 l0 0 l0 0 l0 0 l0 0 l0 0 l0 0 l0 0 l0 0 l0 0 l0 0 l0 0 l0 0 l0 0 l0 0 l0 0 l0 0 l0 0 l0 0 l0 0 l0 0 l0 0 l0 0 l0 0 l0 0 l0 0 l0 0 l0 0 l0 0 l0 0 l0 0 l0 0 l0 0 l0 0 l0 0 l0 0 l0 0 l0 0 l0 0 l0 0 l0 0 l0 0 l0 0 l0 0 l0 0 l0 0 l0 0 l0 0 l0 0 l0 0 l0 0 l0 0 l0 0 l0 0 l0 0 l0 0 l0 0 l0 0 l0 0 l0 0 l0 0 l0 0 l0 0 l0 0 l0 0 l0 0 l0 0 l0 0 l0 0 l0 0 l0 0 l0 0 l0 0 l0 0 l0 0 l0 0 l0 0 l0 0 l0 0 l0 0 l0 0 l0 0 l0 0 l0 0 l0 0 l0 0 l0 0 l0 0 l0 0 l0 0 l0 0 l0 0 l0 0 l0 0 l0 0 l0 0 l0 0 l0 0 l0 0 l0 0 l0 0 l0 0 l0 0 l0 0 l0 0 l0 0 l0 0 l0 0 l0 0 l0 0 l0 0 l0 0 l0 0 l0 0 l0 0 l0 0 l0 0 l0 0 l0 0 l0 0 l0 0 l0 0 l0 0 l0 0 l0 0 l0 0 l0 0 l0 0 l0 0 l0 0 l0 0 l0 0 l0 0 l0 0 l0 0 l0 0 l0 0 l0 0 l0 0 l0 0 l0 0 l0 0 l0 0 l0 0 l0 0 l0 0 l0 0 l0 0 l0 0 l0 0 l0 0 l0 0 l0 0 l0 0 l0 0 l0 0 l0 0 l0 0 l0 0 l0 0 l0 0 l0 0 l0 0 l0 0 l0 0 l0 0 l0 0 l0 0 l0 0 l0 0 l0 0 l0 0 l0 0 l0 0 l0 0 l0 0 l0 0 l0 0 l0 0 l0 0 l0 0 l0 0 l0 0 l0 0 l0 0 l0 0 l0 0 l0 0 l0 0 l0 0 l0 0 l0 0 l0 0 l0 0 l0 0 l0 0 l0 0 l0 0 l0 0 l0 0 l0 0 l0 0 l0 0 l0 0 l0 0 l0 0 l0 0 l0 0 l0 0 l0 0 l0 0 l0 0 l0 0 l0 0 l0 0 l0 0 l0 0 l0 0 l0 0 l0 0 l0 0 l0 0 l0 0 l0 0 l0 0 l0 0 l0 0 l0 0 l0 0 l0 0 l0 0 l0 0 l0 0 l0 0 l0 0 l0 0 l0 0 l0 0 l0 0 l0 0 l0 0 l0 0 l0 0 l0 0 l0 0 l0 0 l0 0 l0 0 l0 0 l0 0 l0 0 l0 0 l0 0 l0 0 l0 0 l0 0 l0 0 l0 0 l0 0 l0 0 l0 0 l0 0 l0 0 l0 0 l0 0 l0 0 l0 0 l0 0 l0 0 l0 0 l0 0 l0 0 l0 0 l0 0 l0 0 l0 0 l0 0 l0 0 l0 0 l0 0 l0 0 l0 0 l0 0 l0 0 l0 0 l0 0 l0 0 l0 0 l0 0 l0 0 l0 0 l0 0 l0 0 l0 0 l0 0 l0 0 l0 0 l0 0 l0 0 l0 0 l0 0 l0 0 l0 0 l0 0 l0 0 l0 0 l0 0 l0 0 l0 0 l0 0 l0 0 l0 0 l0 0 l0 0 l0 0 l0 0 l0 0 l0 0 l0 0 l0 0 l0 0 l0 0 l0 0 l0 0 l0 0 l0 0 l0 0 l0 0 l0 0 l0 0 l0 0 l0 0 l0 0 l0 0 l0 0 l0 0 l0 0 l0 0 l0 0 l0 0 l0 0 l0 0 l0 0 l0 0 l0 0 l0 0 l0 0 l0 0 l0 0 l0 0 l0 0 l0 0 l0 0 l0 0 l0 0 l0 0 l0 0 l0 0 l0 0 l0 0 l0 0 l0 0 l0 0 l0 0 l0 0 l0 0 l0 0 l0 0 l0 0 l0 0 l0 0 l0 0 l0 0 l0 0 l0 0 l0 0 l0 0 l0 0 l0 0 l0 0 l0 0 l0 0 l0 0 l0 0 l0 0 l0 0 l0 0 l0 0 l0 0 l0 0 l0 0 l0 0 l0 0 l0 0 l0 0 l0 0 l0 0 l0 0 l0 0 l0 0 l0 0 l0 0 l0 0 l0 0 l0 0 l0 0 l0 0 l0 0 l0 0 l0 0 l0 0 l0 0 l0 0 l0 0 l0 0 l0 0 l0 0 l0 0 l0 0 l0 0 l0 0 l0 0 l0 0 l0 0 l0 0 l0 0 l0 0 l0 0 l0 0 l0 0 l0 0 l0 0 l0 0 l0 0 l0 0 l0 0 l0 0 l0 0 l0 0 l0 0 l0 0 l0 0 l0 0 l0 0 l0 0 l0 0 l0 0 l0 0 l0 0 l0 0 l0 0 l0 0 l0 0 l0 0 l0 0 l0 0 l0 0 l0 0 l0 0 l0 0 l0 0 l0 0 l0 0 l0 0 l0 0 l0 0 l0 0 l0 0 l0 0 l0 0 l0 0 l0 0 l0 0 l0 0 l0 0 l0 0 l0 0 l0 0 l0 0 l0 0 l0 0 l0 0 l0 0 l0 0 l0 0 l0 0 l0 0 l0 0 l0 0 l0 0 l0 0 l0 0 l0 0 l0 0 l0 0 l0 0 l0 0 l0 0 l0 0 l0 0 l0 0 l0 0 l0 0 l0 0 l0 0 l0 0 l0 0 l0 0 l0 0 l0 0 l0 0 l0 0 l0 0 l0 0 l0 0 l0 0 l0 0 l0 0 l0 0 l0 0 l0 0 l0 0 l0 0 l0 0 l0 0 l0 0 l0 0 l0 0 l0 0 l0 0 l0 0 l0 0 l0 0 l0 0 l0 0 l0 0 l0 0 l0 0 l0 0 l0 0 l0 0 l0 0 l0 0 l0 0 l0 0 l0 0 l0 0 l0 0 l0 0 l0 0 l0 0 l0 0 l0 0 l0 0 l0 0 l0 0 l0 0 l0 0 l0 0 l0 0 l0 0 l0 0 l0 0 l0 0 l0 0 l0 0 l0 0 l0 0 l0 0 l0 0 l0 0 l0 0 l0 0 l0 0 l0 0 l0 0 l0 0 l0 0 l0 0 l0 0 l0 0 l0 0 l0 0 l0 0 l0 0 l0 0 l0 0 l0 0 l0 0 l0 0 l0 0 l0 0 l0 0 l0 0 l0 0 l0 0 l0 0 l0 0 l0 0 l0 0 l0 0 l0 0 l0 0 l0 0 l0 0 l0 0 l0 0 l0 0 l0 0 l0 0 l0 0 l0 0 l0 0 l0 0 l0 0 l0 0 l0 0 l0 0 l0 0 l0 0 l0 0 l0 0 l0 0 l0 0 l0 0 l0 0 l0 0 l0 0 l0 0 l0 0 l0 0 l0 0 l0 0 l0 0 l0 0 l0 0 l0 0 l0 0 l0 0 l0 0 l0 0 l0 0 l0 0 l0 0 l0 0 l0 0 l0 0 l0 0 l0 0 l0 0 l0 0 l0 0 l0 0 l0 0 l0 0 l0 0 l0 0 l0 0 l0 0 H90 V90 H10 Z"/>
  <rect x="100" y="0" width="100" height="100" fill="#f2994a" clip-path="url(#longClip)"/>
  <rect x="200" y="0" width="100" height="100" fill="#27ae60" mask="url(#longMask)"/>
</svg>
