<svg xmlns="http://www.w3.org/2000/svg" viewBox="0 0 160 90">
  <rect width="160" height="90" fill="#0f172a"/>
  <rect x="10" y="10" width="54" height="54" fill="#f8fafc" stroke="#475569" stroke-width="1"/>
  <svg x="13" y="13" width="48" height="48" viewBox="0 0 48 48">
    <rect width="48" height="48" fill="#e2e8f0"/>
    <circle cx="8" cy="24" r="24" fill="#38bdf8"/>
    <circle cx="40" cy="24" r="24" fill="#f97316" fill-opacity="0.9"/>
    <rect x="-12" y="35" width="72" height="10" fill="#22c55e" fill-opacity="0.8"/>
  </svg>
  <rect x="94" y="10" width="54" height="54" fill="#f8fafc" stroke="#475569" stroke-width="1"/>
  <svg x="97" y="13" width="48" height="48" viewBox="0 0 48 48" style="overflow:visible">
    <rect width="48" height="48" fill="#e2e8f0"/>
    <circle cx="8" cy="24" r="24" fill="#38bdf8"/>
    <circle cx="40" cy="24" r="24" fill="#f97316" fill-opacity="0.9"/>
    <rect x="-12" y="35" width="72" height="10" fill="#22c55e" fill-opacity="0.8"/>
  </svg>
  <rect x="16" y="72" width="40" height="10" fill="#f8fafc" stroke="#475569" stroke-width="1"/>
  <svg x="18" y="74" width="36" height="6">
    <rect x="-18" y="0" width="72" height="6" fill="#a78bfa"/>
  </svg>
  <rect x="102" y="72" width="40" height="10" fill="#f8fafc" stroke="#475569" stroke-width="1"/>
  <svg x="104" y="74" width="36" height="6" overflow="visible">
    <rect x="-18" y="0" width="72" height="6" fill="#a78bfa"/>
  </svg>
</svg>
