<svg xmlns="http://www.w3.org/2000/svg" width="512" height="512" viewBox="0 0 512 512">
  <defs>
    <linearGradient id="reverseGradient" x1="0" y1="0" x2="1" y2="1">
      <stop offset="0" stop-color="#60a5fa"/>
      <stop offset="1" stop-color="#34d399"/>
    </linearGradient>
  </defs>
  <rect width="512" height="512" fill="#111827"/>

  <g fill="none" stroke-width="24" stroke-linecap="butt">
    <path d="M30 132 L110 36 L54 103.2" stroke="#38bdf8" stroke-linejoin="round"/>
    <path d="M190 132 L270 36 L214 103.2" stroke="#f97316" stroke-linejoin="bevel"/>
    <path d="M350 132 L430 36 L374 103.2" stroke="#a78bfa" stroke-linejoin="miter" stroke-miterlimit="4"/>

    <path d="M30 292 L110 196 L54.35 263.2" stroke="#22c55e" stroke-linejoin="round"/>
    <path d="M190 292 L270 196 L213.65 262.8" stroke="#facc15" stroke-linejoin="bevel"/>
    <path d="M350 292 L430 196 L374.35 263.2" stroke="#fb7185" stroke-linejoin="miter" stroke-miterlimit="2"/>
  </g>

  <g fill="none" stroke-width="18" stroke-linecap="round" stroke-linejoin="round">
    <path d="M30 452 L110 356 L54 423.2" stroke="#2dd4bf"/>
    <path d="M190 452 L270 356 L214 423.2" stroke="url(#reverseGradient)" transform="scale(1.08 .86) translate(-18 61)"/>
    <path d="M350 452 L430 356 L374 423.2" stroke="#f472b6" stroke-opacity=".55"/>
  </g>
</svg>
