<svg viewBox="0 0 260 150" xmlns="http://www.w3.org/2000/svg">
  <rect x="0" y="0" width="260" height="150" fill="#111820"/>
  <defs>
    <svg id="svgIcon" viewBox="0 0 20 20" preserveAspectRatio="xMidYMid meet">
      <rect x="1" y="1" width="18" height="18" rx="3" fill="#2563eb" stroke="#93c5fd" stroke-width="2"/>
      <circle cx="7" cy="7" r="3" fill="#f97316"/>
      <path d="M5 15 L10 9 L15 15 Z" fill="#facc15"/>
      <text x="10" y="12" font-size="5" text-anchor="middle" fill="#ffffff">S</text>
    </svg>
    <svg id="svgWide" viewBox="0 0 20 10" preserveAspectRatio="none">
      <rect x="0" y="0" width="20" height="10" fill="#2a9d8f"/>
      <circle cx="5" cy="5" r="4" fill="#e76f51"/>
      <circle cx="15" cy="5" r="4" fill="#e9c46a"/>
    </svg>
    <svg id="svgNoViewBox" width="24" height="12" preserveAspectRatio="none">
      <rect x="0" y="0" width="24" height="12" fill="#334155"/>
      <path d="M2 10 L12 2 L22 10 Z" fill="#22c55e"/>
    </svg>
  </defs>
  <use href="#svgIcon" x="20" y="24" width="54" height="54"/>
  <use href="#svgIcon" x="96" y="16" width="80" height="64" opacity="0.75"/>
  <svg id="inlineSvg" x="198" y="22" width="42" height="42" viewBox="0 0 10 10" preserveAspectRatio="xMidYMid meet">
    <rect x="1" y="1" width="8" height="8" fill="#7c3aed" stroke="#d8b4fe" stroke-width="1"/>
    <path id="inlineGlyph" d="M2 8 L5 2 L8 8 Z" fill="#ffffff"/>
  </svg>
  <use href="#inlineSvg" x="202" y="76" width="38" height="38" opacity="0.85"/>
  <use href="#inlineGlyph" x="118" y="84" opacity="0.85"/>
  <use href="#svgWide" x="44" y="116" width="172" height="26"/>
  <use href="#svgNoViewBox" x="18" y="86" width="72" height="20"/>
</svg>
