<svg viewBox="0 0 260 170" xmlns="http://www.w3.org/2000/svg">
  <rect x="0" y="0" width="260" height="170" fill="#111820"/>
  <defs>
    <linearGradient id="warmUse" x1="0%" y1="0%" x2="100%" y2="0%">
      <stop offset="0%" stop-color="#f97316"/>
      <stop offset="100%" stop-color="#facc15"/>
    </linearGradient>
    <pattern id="tileUse" patternUnits="userSpaceOnUse" width="8" height="8">
      <rect x="0" y="0" width="8" height="8" fill="#312e81"/>
      <path d="M0 8 L8 0" stroke="#a78bfa" stroke-width="2"/>
    </pattern>
    <symbol id="plain" viewBox="0 0 40 26" preserveAspectRatio="xMidYMid meet">
      <rect x="2" y="2" width="36" height="22"/>
      <circle cx="30" cy="13" r="8" fill="#ff4d6d"/>
    </symbol>
    <symbol id="current" viewBox="0 0 40 26" preserveAspectRatio="xMidYMid meet">
      <rect x="2" y="2" width="36" height="22" fill="currentColor" fill-opacity="0.42"/>
      <circle cx="20" cy="13" r="5" fill="currentColor"/>
    </symbol>
    <symbol id="fixed" viewBox="0 0 40 26" preserveAspectRatio="xMidYMid meet">
      <rect x="2" y="2" width="36" height="22" fill="#facc15"/>
      <path d="M12 20 L20 6 L28 20 Z" fill="#111820"/>
    </symbol>
  </defs>
  <use href="#plain" x="16" y="26" width="58" height="38" fill="#22c55e"/>
  <use href="#current" x="91" y="26" width="58" height="38" color="#38bdf8"/>
  <use href="#fixed" x="166" y="26" width="58" height="38" fill="#ffffff"/>
  <use href="#plain" x="66" y="78" width="42" height="26" stroke="#e879f9" stroke-width="3"/>
  <use href="#current" x="132" y="78" width="42" height="26" color="#f97316" opacity="0.75"/>
  <use href="#plain" x="16" y="122" width="58" height="38" fill="url(#warmUse)"/>
  <use href="#plain" x="92" y="122" width="58" height="38" fill="url(#tileUse)"/>
  <use href="#plain" x="168" y="122" width="58" height="38" fill="none" stroke="url(#tileUse)" stroke-width="5"/>
</svg>
